<svg xmlns="http://www.w3.org/2000/svg" viewBox="0 0 1920 1080" width="1920" height="1080">
  <defs>
    <linearGradient id="bg" x1="0" y1="0" x2="0" y2="1">
      <stop offset="0%" stop-color="#FAFAFA"/>
      <stop offset="100%" stop-color="#E2E5E8"/>
    </linearGradient>
    <linearGradient id="topbarBg" x1="0" y1="0" x2="0" y2="1">
      <stop offset="0%" stop-color="#FFFFFF"/>
      <stop offset="100%" stop-color="#F6F7F9"/>
    </linearGradient>
    <linearGradient id="termTitle" x1="0" y1="0" x2="0" y2="1">
      <stop offset="0%" stop-color="#3D3D3D"/>
      <stop offset="100%" stop-color="#2D2D2D"/>
    </linearGradient>
    <linearGradient id="browserTitle" x1="0" y1="0" x2="0" y2="1">
      <stop offset="0%" stop-color="#FFFFFF"/>
      <stop offset="100%" stop-color="#F0F0F0"/>
    </linearGradient>
    <linearGradient id="vscTitle" x1="0" y1="0" x2="0" y2="1">
      <stop offset="0%" stop-color="#3C3C3C"/>
      <stop offset="100%" stop-color="#323232"/>
    </linearGradient>
    <linearGradient id="cardGlow" x1="0" y1="0" x2="1" y2="1">
      <stop offset="0%" stop-color="rgba(13,148,136,0.12)"/>
      <stop offset="100%" stop-color="rgba(13,148,136,0.02)"/>
    </linearGradient>
    <filter id="shadow" x="-8%" y="-8%" width="116%" height="116%">
      <feDropShadow dx="0" dy="6" stdDeviation="14" flood-color="#000" flood-opacity="0.15"/>
    </filter>
    <filter id="shadowDeep" x="-8%" y="-8%" width="116%" height="116%">
      <feDropShadow dx="0" dy="10" stdDeviation="20" flood-color="#000" flood-opacity="0.20"/>
    </filter>
    <filter id="topShadow" x="0%" y="0%" width="100%" height="200%">
      <feDropShadow dx="0" dy="1" stdDeviation="3" flood-color="#000" flood-opacity="0.08"/>
    </filter>
    <filter id="innerGlow">
      <feGaussianBlur in="SourceAlpha" stdDeviation="1" result="blur"/>
      <feOffset dx="0" dy="1" result="offset"/>
      <feComposite in="SourceGraphic" in2="offset" operator="over"/>
    </filter>
    <linearGradient id="termProgress" x1="0" y1="0" x2="1" y2="0">
      <stop offset="0%" stop-color="#4AF626"/>
      <stop offset="100%" stop-color="#2EA043"/>
    </linearGradient>
  </defs>

  <!-- Desktop Background -->
  <rect width="1920" height="1080" fill="url(#bg)"/>

  <!-- Subtle desktop pattern -->
  <g opacity="0.015">
    <rect x="0" y="0" width="1920" height="1080" fill="none" stroke="#000" stroke-width="0.5"/>
    <line x1="320" y1="0" x2="320" y2="1080" stroke="#000" stroke-width="0.5"/>
    <line x1="640" y1="0" x2="640" y2="1080" stroke="#000" stroke-width="0.5"/>
    <line x1="960" y1="0" x2="960" y2="1080" stroke="#000" stroke-width="0.5"/>
    <line x1="1280" y1="0" x2="1280" y2="1080" stroke="#000" stroke-width="0.5"/>
    <line x1="1600" y1="0" x2="1600" y2="1080" stroke="#000" stroke-width="0.5"/>
  </g>

  <!-- ===== TOP BAR ===== -->
  <rect width="1920" height="28" fill="url(#topbarBg)" filter="url(#topShadow)"/>
  <rect width="1920" height="1" y="27" fill="#E4E5E7"/>

  <!-- Hot Corner (top-left) -->
  <rect x="0" y="0" width="4" height="4" fill="#0D9488" opacity="0.3" rx="0.5"/>

  <!-- Activities Button -->
  <rect x="8" y="4" width="82" height="20" rx="5" fill="#F0F1F3"/>
  <rect x="18" y="11" width="8" height="6" rx="1.5" fill="#0D9488"/>
  <text x="34" y="17" fill="#333" font-family="system-ui, -apple-system, sans-serif" font-size="10" font-weight="600">Activities</text>

  <!-- Date & Time -->
  <text x="960" y="17" fill="#1A1A1A" font-family="system-ui, -apple-system, sans-serif" font-size="11" font-weight="600" text-anchor="middle">Sat Jul 18  3:41 PM</text>

  <!-- System Tray -->
  <!-- WiFi Icon -->
  <g transform="translate(1786, 9)">
    <path d="M0 6 Q6 0 12 6" fill="none" stroke="#555" stroke-width="1.5" stroke-linecap="round"/>
    <path d="M3 8 Q6 4 9 8" fill="none" stroke="#555" stroke-width="1.5" stroke-linecap="round"/>
    <circle cx="6" cy="11" r="1.5" fill="#555"/>
  </g>

  <!-- Battery Icon -->
  <g transform="translate(1810, 9)">
    <rect x="0" y="0" width="14" height="9" rx="2" fill="none" stroke="#555" stroke-width="1.2"/>
    <rect x="2" y="2" width="10" height="5" rx="1" fill="#555"/>
    <rect x="2" y="2" width="8" height="5" rx="1" fill="#0D9488"/>
    <rect x="14" y="2" width="2" height="5" rx="1" fill="#555"/>
  </g>

  <!-- Sound Icon -->
  <g transform="translate(1836, 9)">
    <rect x="0" y="2" width="4" height="6" rx="0.5" fill="#555"/>
    <path d="M4 2 L8 0 L8 10 L4 8" fill="#555"/>
    <path d="M10 3 Q13 5 10 8" fill="none" stroke="#555" stroke-width="1.2" stroke-linecap="round"/>
    <path d="M11 1 Q16 5 11 10" fill="none" stroke="#555" stroke-width="1.2" stroke-linecap="round"/>
  </g>

  <!-- Dropdown / Chevron -->
  <g transform="translate(1864, 11)">
    <path d="M0 0 L6 4 L12 0" fill="none" stroke="#555" stroke-width="1.2" stroke-linecap="round"/>
  </g>

  <!-- Workspace indicator -->
  <rect x="1890" y="10" width="18" height="8" rx="2" fill="#E0E0E0"/>
  <rect x="1892" y="12" width="6" height="4" rx="1" fill="#0D9488"/>
  <rect x="1900" y="12" width="6" height="4" rx="1" fill="#CCC"/>

  <!-- ===== VS CODE WINDOW (bottom-most) ===== -->
  <g filter="url(#shadow)" transform="translate(280, 380)">
    <!-- Window body -->
    <rect width="800" height="620" rx="8" fill="#1E1E1E"/>
    <rect width="800" height="30" rx="8" fill="url(#vscTitle)"/>
    <rect x="0" y="30" width="800" height="1" fill="rgba(255,255,255,0.08)"/>

    <!-- Title bar dots -->
    <circle cx="14" cy="15" r="4.5" fill="#FF5F57"/>
    <circle cx="28" cy="15" r="4.5" fill="#FFBD2E"/>
    <circle cx="42" cy="15" r="4.5" fill="#28C840"/>

    <!-- Title -->
    <text x="400" y="19" fill="#BBB" font-family="system-ui, -apple-system, sans-serif" font-size="10" text-anchor="middle">vector_search.py — ash-vector-search</text>

    <!-- Tabs -->
    <g transform="translate(48, 30)">
      <rect x="0" y="0" width="130" height="32" fill="#2D2D2D"/>
      <rect x="1" y="32" width="128" height="1" fill="#1E1E1E"/>
      <path d="M10 22 L10 12 L16 17 L10 22Z" fill="#0D9488" opacity="0.7"/>
      <text x="22" y="21" fill="#CCC" font-family="system-ui, -apple-system, sans-serif" font-size="11">vector_search.py</text>

      <rect x="130" y="0" width="100" height="32" fill="#1E1E1E"/>
      <text x="146" y="21" fill="#666" font-family="system-ui, -apple-system, sans-serif" font-size="11">config.yaml</text>

      <rect x="230" y="0" width="100" height="32" fill="#1E1E1E"/>
      <text x="246" y="21" fill="#666" font-family="system-ui, -apple-system, sans-serif" font-size="11">Dockerfile</text>
    </g>

    <!-- Activity Bar -->
    <rect x="0" y="62" width="48" height="558" fill="#333333"/>
    <g transform="translate(0, 62)">
      <!-- Explorer (active) -->
      <rect x="0" y="4" width="48" height="42" fill="rgba(255,255,255,0.05)"/>
      <rect x="0" y="4" width="2" height="42" fill="#0D9488"/>
      <rect x="15" y="17" width="18" height="16" rx="2" fill="none" stroke="#CCC" stroke-width="1.5"/>
      <path d="M19 21 L25 25 L19 29" fill="none" stroke="#CCC" stroke-width="1.2"/>

      <!-- Search -->
      <rect x="15" y="63" width="18" height="18" rx="6" fill="none" stroke="rgba(255,255,255,0.35)" stroke-width="1.5"/>
      <rect x="28" y="76" width="5" height="5" rx="1" fill="none" stroke="rgba(255,255,255,0.35)" stroke-width="1.5" transform="rotate(45 28 76)"/>

      <!-- Source Control -->
      <path d="M17 123 L23 117 L29 123" fill="none" stroke="rgba(255,255,255,0.35)" stroke-width="1.5"/>
      <path d="M23 117 L23 135" stroke="rgba(255,255,255,0.35)" stroke-width="1.5"/>
      <circle cx="23" cy="135" r="4" fill="rgba(255,255,255,0.35)"/>

      <!-- Extensions -->
      <rect x="16" y="175" width="16" height="16" rx="3" fill="none" stroke="rgba(255,255,255,0.35)" stroke-width="1.5"/>
      <rect x="20" y="179" width="8" height="8" rx="1.5" fill="rgba(255,255,255,0.35)"/>
    </g>

    <!-- Sidebar -->
    <rect x="48" y="62" width="190" height="558" fill="#252526"/>
    <rect x="48" y="62" width="1" height="558" fill="rgba(255,255,255,0.06)"/>

    <!-- Sidebar header -->
    <rect x="48" y="62" width="190" height="30" fill="#252526"/>
    <text x="60" y="80" fill="#BBB" font-family="system-ui, -apple-system, sans-serif" font-size="9" font-weight="600" letter-spacing="0.8">EXPLORER</text>

    <!-- File tree -->
    <g transform="translate(56, 100)" font-family="system-ui, -apple-system, sans-serif" font-size="11" fill="#999">
      <!-- Root folder -->
      <path d="M0 0 L6 6 L0 12" fill="none" stroke="rgba(255,255,255,0.25)" stroke-width="1.2"/>
      <rect x="10" y="1" width="12" height="10" rx="1" fill="none" stroke="rgba(255,255,255,0.35)" stroke-width="1.2"/>
      <text x="26" y="10" fill="#CCC">ash-vector-search</text>

      <!-- src/ folder -->
      <path d="M12 24 L18 30 L12 36" fill="none" stroke="rgba(255,255,255,0.25)" stroke-width="1.2"/>
      <circle cx="26" cy="30" r="5" fill="rgba(255,255,255,0.15)"/>
      <text x="34" y="33" fill="#CCC">src</text>

      <!-- main.py -->
      <g transform="translate(24, 44)">
        <path d="M0 4 L6 10 L0 16" fill="none" stroke="rgba(255,255,255,0.2)" stroke-width="1.2"/>
        <circle cx="14" cy="10" r="5" fill="#0D9488" opacity="0.5"/>
        <text x="22" y="13" fill="#CCC">main.py</text>
      </g>

      <!-- vector_search.py (selected) -->
      <g transform="translate(24, 68)">
        <rect x="-8" y="-4" width="166" height="22" rx="2" fill="#37373D"/>
        <path d="M0 4 L6 10 L0 16" fill="none" stroke="rgba(255,255,255,0.2)" stroke-width="1.2"/>
        <circle cx="14" cy="10" r="5" fill="#0D9488" opacity="0.7"/>
        <text x="22" y="13" fill="#FFF">vector_search.py</text>
      </g>

      <!-- utils/ folder -->
      <g transform="translate(24, 94)">
        <path d="M0 4 L6 10 L0 16" fill="none" stroke="rgba(255,255,255,0.2)" stroke-width="1.2"/>
        <circle cx="14" cy="10" r="5" fill="rgba(255,255,255,0.15)"/>
        <text x="22" y="13" fill="#CCC">utils</text>
      </g>

      <!-- config.yaml -->
      <g transform="translate(48, 118)">
        <path d="M0 4 L6 10 L0 16" fill="none" stroke="rgba(255,255,255,0.2)" stroke-width="1.2"/>
        <circle cx="14" cy="10" r="5" fill="rgba(255,255,255,0.15)"/>
        <text x="22" y="13" fill="#999">config.yaml</text>
      </g>

      <!-- Dockerfile -->
      <g transform="translate(48, 140)">
        <path d="M0 4 L6 10 L0 16" fill="none" stroke="rgba(255,255,255,0.2)" stroke-width="1.2"/>
        <circle cx="14" cy="10" r="5" fill="rgba(255,255,255,0.15)"/>
        <text x="22" y="13" fill="#999">Dockerfile</text>
      </g>

      <!-- README.md -->
      <g transform="translate(48, 162)">
        <path d="M0 4 L6 10 L0 16" fill="none" stroke="rgba(255,255,255,0.2)" stroke-width="1.2"/>
        <rect x="10" y="4" width="8" height="12" rx="1.5" fill="none" stroke="rgba(255,255,255,0.3)" stroke-width="1.2"/>
        <text x="22" y="13" fill="#999">README.md</text>
      </g>
    </g>

    <!-- Editor area -->
    <g transform="translate(238, 96)" font-family="'JetBrains Mono', 'Fira Code', 'SF Mono', monospace" font-size="11">
      <!-- Line numbers gutter -->
      <g fill="#484848">
        <text x="0" y="12" text-anchor="end">1</text>
        <text x="0" y="27" text-anchor="end">2</text>
        <text x="0" y="42" text-anchor="end">3</text>
        <text x="0" y="57" text-anchor="end">4</text>
        <text x="0" y="72" text-anchor="end">5</text>
        <text x="0" y="87" text-anchor="end">6</text>
        <text x="0" y="102" text-anchor="end">7</text>
        <text x="0" y="117" text-anchor="end">8</text>
        <text x="0" y="132" text-anchor="end">9</text>
        <text x="0" y="147" text-anchor="end">10</text>
        <text x="0" y="162" text-anchor="end">11</text>
        <text x="0" y="177" text-anchor="end">12</text>
        <text x="0" y="192" text-anchor="end">13</text>
        <text x="0" y="207" text-anchor="end">14</text>
        <text x="0" y="222" text-anchor="end">15</text>
        <text x="0" y="237" text-anchor="end">16</text>
      </g>
      <rect x="24" y="0" width="360" height="15" fill="#2D2D2D" opacity="0.5"/>

      <!-- Code -->
      <g transform="translate(28, 0)">
        <!-- Line 1: import os -->
        <text x="0" y="12" fill="#569CD6">import</text>
        <text x="44" y="12" fill="#9CDCFE">os</text>

        <!-- Line 2: from qdrant_client import QdrantClient -->
        <text x="0" y="27" fill="#569CD6">from</text>
        <text x="32" y="27" fill="#9CDCFE">qdrant_client</text>
        <text x="128" y="27" fill="#569CD6">import</text>
        <text x="164" y="27" fill="#9CDCFE">QdrantClient</text>

        <!-- Line 3: from qdrant_client.http.models import * -->
        <text x="0" y="42" fill="#569CD6">from</text>
        <text x="32" y="42" fill="#9CDCFE">qdrant_client.http.models</text>
        <text x="248" y="42" fill="#569CD6">import</text>
        <text x="284" y="42" fill="#9CDCFE">VectorParams, Distance</text>

        <!-- Line 4: empty -->

        <!-- Line 5: # Initialize Qdrant -->
        <text x="0" y="72" fill="#6A9955"># Initialize Qdrant client with local connection</text>

        <!-- Line 6: def setup_collection(): -->
        <text x="0" y="87" fill="#569CD6">def</text>
        <text x="28" y="87" fill="#DCDCAA">setup_collection</text>
        <text x="144" y="87" fill="#D4D4D4">():</text>

        <!-- Line 7: client = QdrantClient("localhost", port=6333) -->
        <text x="16" y="102" fill="#9CDCFE">client</text>
        <text x="64" y="102" fill="#D4D4D4">=</text>
        <text x="76" y="102" fill="#9CDCFE">QdrantClient</text>
        <text x="160" y="102" fill="#D4D4D4">(</text>
        <text x="168" y="102" fill="#CE9178">"localhost"</text>
        <text x="244" y="102" fill="#D4D4D4">,</text>
        <text x="252" y="102" fill="#DCDCAA">port</text>
        <text x="280" y="102" fill="#D4D4D4">=</text>
        <text x="292" y="102" fill="#B5CEA8">6333</text>
        <text x="316" y="102" fill="#D4D4D4">)</text>

        <!-- Line 8: client.recreate_collection( -->
        <text x="16" y="117" fill="#9CDCFE">client</text>
        <text x="64" y="117" fill="#D4D4D4">.</text>
        <text x="72" y="117" fill="#DCDCAA">recreate_collection</text>
        <text x="196" y="117" fill="#D4D4D4">(</text>
        <text x="204" y="117" fill="#DCDCAA">collection_name</text>
        <text x="328" y="117" fill="#D4D4D4">=</text>
        <text x="340" y="117" fill="#CE9178">"documents"</text>
        <text x="416" y="117" fill="#D4D4D4">,</text>

        <!-- Line 9: vectors_config=VectorParams( -->
        <text x="16" y="132" fill="#DCDCAA">vectors_config</text>
        <text x="132" y="132" fill="#D4D4D4">=</text>
        <text x="144" y="132" fill="#9CDCFE">VectorParams</text>
        <text x="228" y="132" fill="#D4D4D4">(</text>
        <text x="236" y="132" fill="#DCDCAA">size</text>
        <text x="260" y="132" fill="#D4D4D4">=</text>
        <text x="272" y="132" fill="#B5CEA8">768</text>
        <text x="296" y="132" fill="#D4D4D4">,</text>
        <text x="304" y="132" fill="#DCDCAA">distance</text>
        <text x="356" y="132" fill="#D4D4D4">=</text>
        <text x="368" y="132" fill="#9CDCFE">Distance</text>
        <text x="424" y="132" fill="#D4D4D4">.</text>
        <text x="432" y="132" fill="#9CDCFE">COSINE</text>

        <!-- Line 10: )) -->
        <text x="16" y="147" fill="#D4D4D4">))</text>

        <!-- Line 11: empty -->

        <!-- Line 12: def search_vectors(query: list[float]): -->
        <text x="0" y="177" fill="#569CD6">def</text>
        <text x="28" y="177" fill="#DCDCAA">search_vectors</text>
        <text x="132" y="177" fill="#D4D4D4">(</text>
        <text x="140" y="177" fill="#DCDCAA">query</text>
        <text x="180" y="177" fill="#D4D4D4">:</text>
        <text x="188" y="177" fill="#9CDCFE">list</text>
        <text x="208" y="177" fill="#D4D4D4">[</text>
        <text x="216" y="177" fill="#9CDCFE">float</text>
        <text x="244" y="177" fill="#D4D4D4">]):</text>

        <!-- Line 13: results = client.search( -->
        <text x="16" y="192" fill="#9CDCFE">results</text>
        <text x="72" y="192" fill="#D4D4D4">=</text>
        <text x="84" y="192" fill="#9CDCFE">client</text>
        <text x="124" y="192" fill="#D4D4D4">.</text>
        <text x="132" y="192" fill="#DCDCAA">search</text>
        <text x="172" y="192" fill="#D4D4D4">(</text>

        <!-- Line 14: collection_name="documents", -->
        <text x="32" y="207" fill="#DCDCAA">collection_name</text>
        <text x="156" y="207" fill="#D4D4D4">=</text>
        <text x="168" y="207" fill="#CE9178">"documents"</text>
        <text x="244" y="207" fill="#D4D4D4">,</text>

        <!-- Line 15: query_vector=query, -->
        <text x="32" y="222" fill="#DCDCAA">query_vector</text>
        <text x="128" y="222" fill="#D4D4D4">=</text>
        <text x="140" y="222" fill="#DCDCAA">query</text>
        <text x="180" y="222" fill="#D4D4D4">,</text>

        <!-- Line 16: limit=10) -->
        <text x="32" y="237" fill="#DCDCAA">limit</text>
        <text x="68" y="237" fill="#D4D4D4">=</text>
        <text x="80" y="237" fill="#B5CEA8">10</text>
        <text x="104" y="237" fill="#D4D4D4">)</text>
      </g>
    </g>

    <!-- Editor scrollbar -->
    <rect x="1030" y="96" width="8" height="380" rx="4" fill="transparent"/>
    <rect x="1030" y="96" width="8" height="60" rx="4" fill="rgba(255,255,255,0.08)"/>

    <!-- VS Code Integrated Terminal (bottom panel) -->
    <g transform="translate(48, 470)">
      <!-- Terminal panel header -->
      <rect x="0" y="0" width="752" height="24" fill="#252526"/>
      <rect x="0" y="0" width="80" height="24" fill="#1E1E1E"/>
      <rect x="0" y="24" width="80" height="1" fill="#0D9488"/>
      <text x="12" y="16" fill="#FFF" font-family="system-ui, -apple-system, sans-serif" font-size="9">PROBLEMS</text>
      <text x="88" y="16" fill="#CCC" font-family="system-ui, -apple-system, sans-serif" font-size="9">OUTPUT</text>
      <text x="152" y="16" fill="#CCC" font-family="system-ui, -apple-system, sans-serif" font-size="9">TERMINAL</text>
      <rect x="228" y="4" width="60" height="16" rx="3" fill="#0D9488"/>
      <text x="232" y="16" fill="#FFF" font-family="system-ui, -apple-system, sans-serif" font-size="8" font-weight="600">bash</text>

      <!-- Terminal content area (semi-transparent) -->
      <rect x="0" y="24" width="752" height="126" fill="rgba(30,30,30,0.92)"/>

      <!-- Terminal text -->
      <g transform="translate(10, 38)" font-family="'JetBrains Mono', 'Fira Code', monospace" font-size="11" opacity="0.9">
        <text x="0" y="0" fill="#0D9488">aiuser@ash</text>
        <text x="68" y="0" fill="#888">:</text>
        <text x="76" y="0" fill="#4AF626">~</text>
        <text x="88" y="0" fill="#888">$</text>
        <text x="100" y="0" fill="#CCC">python vector_search.py</text>

        <text x="0" y="18" fill="#888">Connecting to Qdrant at localhost:6333...</text>
        <text x="0" y="36" fill="#4AF626">✓ Connected successfully</text>
        <text x="0" y="54" fill="#888">Creating collection 'documents' with 768-dim vectors...</text>
        <text x="0" y="72" fill="#4AF626">✓ Collection ready</text>
        <text x="0" y="90" fill="#888">Searching for similar vectors...</text>
        <text x="0" y="108" fill="#4AF626">✓ Found 10 results (12ms)</text>
      </g>
    </g>

    <!-- Status bar -->
    <rect x="48" y="596" width="752" height="24" fill="#0D9488"/>
    <text x="60" y="612" fill="#FFF" font-family="system-ui, -apple-system, sans-serif" font-size="10">main</text>
    <text x="100" y="612" fill="rgba(255,255,255,0.75)" font-family="system-ui, -apple-system, sans-serif" font-size="10">Ln 16, Col 4</text>
    <text x="180" y="612" fill="rgba(255,255,255,0.75)" font-family="system-ui, -apple-system, sans-serif" font-size="10">Spaces: 4</text>
    <text x="260" y="612" fill="rgba(255,255,255,0.75)" font-family="system-ui, -apple-system, sans-serif" font-size="10">UTF-8</text>
    <text x="320" y="612" fill="rgba(255,255,255,0.75)" font-family="system-ui, -apple-system, sans-serif" font-size="10">Python 3.12</text>
    <!-- Right side -->
    <circle cx="736" cy="608" r="3.5" fill="#4AF626"/>
    <text x="746" y="612" fill="rgba(255,255,255,0.75)" font-family="system-ui, -apple-system, sans-serif" font-size="10">Prettier</text>
    <circle cx="748" cy="608" r="3.5" fill="transparent"/>
  </g>

  <!-- ===== BROWSER WINDOW ===== -->
  <g filter="url(#shadow)" transform="translate(1060, 40)">
    <!-- Window body -->
    <rect width="820" height="530" rx="8" fill="#FFFFFF"/>
    <rect width="820" height="38" rx="8" fill="url(#browserTitle)"/>
    <rect x="0" y="38" width="820" height="1" fill="#D4D4D4"/>

    <!-- Title bar dots -->
    <circle cx="16" cy="19" r="5" fill="#FF5F57"/>
    <circle cx="32" cy="19" r="5" fill="#FFBD2E"/>
    <circle cx="48" cy="19" r="5" fill="#28C840"/>

    <!-- URL Bar -->
    <rect x="90" y="10" width="640" height="20" rx="10" fill="#E8E9EB"/>
    <rect x="108" y="17" width="7" height="8" rx="1.5" fill="none" stroke="#0D9488" stroke-width="1.2"/>
    <path d="M111 24 L111 27 L115 27" fill="none" stroke="#0D9488" stroke-width="1" stroke-linecap="round"/>
    <text x="124" y="23" fill="#333" font-family="system-ui, -apple-system, sans-serif" font-size="10" font-weight="500">localhost:6333</text>
    <text x="230" y="23" fill="#999" font-family="system-ui, -apple-system, sans-serif" font-size="10">/dashboard</text>

    <!-- Bookmark / Favorites bar -->
    <rect x="0" y="38" width="820" height="3" fill="#0D9488"/>

    <!-- Page Content - Qdrant Dashboard -->
    <rect x="0" y="41" width="820" height="489" fill="#0F172A"/>

    <!-- Dashboard Sidebar -->
    <rect x="0" y="41" width="190" height="489" fill="#1E293B"/>

    <!-- Qdrant Logo -->
    <text x="20" y="76" fill="#0D9488" font-family="system-ui, -apple-system, sans-serif" font-size="18" font-weight="700">Qdrant</text>
    <text x="94" y="76" fill="#94A3B8" font-family="system-ui, -apple-system, sans-serif" font-size="9" font-weight="500">v1.13.0</text>

    <!-- Sidebar Nav -->
    <g transform="translate(16, 96)" font-family="system-ui, -apple-system, sans-serif" font-size="12">
      <rect x="-8" y="0" width="174" height="28" rx="4" fill="rgba(13,148,136,0.15)"/>
      <text x="4" y="19" fill="#0D9488" font-weight="500">Dashboard</text>
      <circle cx="156" cy="14" r="3" fill="#4AF626"/>

      <rect x="-8" y="32" width="174" height="28" rx="4" fill="transparent"/>
      <text x="4" y="51" fill="#94A3B8">Collections</text>

      <rect x="-8" y="64" width="174" height="28" rx="4" fill="transparent"/>
      <text x="4" y="83" fill="#94A3B8">Search</text>

      <rect x="-8" y="96" width="174" height="28" rx="4" fill="transparent"/>
      <text x="4" y="115" fill="#94A3B8">Snapshots</text>

      <rect x="-8" y="128" width="174" height="28" rx="4" fill="transparent"/>
      <text x="4" y="147" fill="#94A3B8">Settings</text>
    </g>

    <!-- Sidebar divider -->
    <rect x="16" y="260" width="158" height="1" fill="rgba(255,255,255,0.06)"/>

    <!-- Cluster info -->
    <g transform="translate(16, 278)" font-family="system-ui, -apple-system, sans-serif" font-size="10">
      <text x="0" y="0" fill="#64748B" font-weight="600" letter-spacing="0.5">CLUSTER</text>
      <text x="0" y="20" fill="#CBD5E1" font-size="11">ash-qdrant-node-1</text>
      <text x="0" y="35" fill="#64748B">3 replicas · 10 shards</text>
    </g>

    <!-- Online badge at sidebar bottom -->
    <g transform="translate(16, 460)">
      <rect x="0" y="0" width="158" height="24" rx="4" fill="rgba(74,246,38,0.08)"/>
      <circle cx="14" cy="12" r="4" fill="#4AF626"/>
      <text x="24" y="16" fill="#4AF626" font-family="system-ui, -apple-system, sans-serif" font-size="10" font-weight="600">All Systems Online</text>
    </g>

    <!-- Main Content Area -->
    <g transform="translate(210, 66)">
      <!-- Header -->
      <text x="0" y="0" fill="#F1F5F9" font-family="system-ui, -apple-system, sans-serif" font-size="20" font-weight="600">Dashboard</text>
      <text x="0" y="22" fill="#64748B" font-family="system-ui, -apple-system, sans-serif" font-size="11">Overview of your vector database cluster</text>

      <!-- Stats Cards -->
      <g transform="translate(0, 46)">
        <!-- Card 1: Collections -->
        <rect x="0" y="0" width="136" height="72" rx="8" fill="#1E293B" stroke="rgba(255,255,255,0.04)" stroke-width="1"/>
        <rect x="0" y="0" width="136" height="72" rx="8" fill="url(#cardGlow)"/>
        <text x="14" y="22" fill="#94A3B8" font-family="system-ui, -apple-system, sans-serif" font-size="10">Collections</text>
        <text x="14" y="54" fill="#F1F5F9" font-family="system-ui, -apple-system, sans-serif" font-size="26" font-weight="700">3</text>
        <g transform="translate(104, 48)">
          <path d="M0 8 L8 0 L16 8" fill="none" stroke="#4AF626" stroke-width="1.5"/>
        </g>

        <!-- Card 2: Vectors -->
        <rect x="150" y="0" width="136" height="72" rx="8" fill="#1E293B" stroke="rgba(255,255,255,0.04)" stroke-width="1"/>
        <text x="164" y="22" fill="#94A3B8" font-family="system-ui, -apple-system, sans-serif" font-size="10">Vectors</text>
        <text x="164" y="54" fill="#F1F5F9" font-family="system-ui, -apple-system, sans-serif" font-size="26" font-weight="700">12.4K</text>
        <rect x="260" y="40" width="14" height="14" rx="3" fill="#0D9488" opacity="0.6"/>

        <!-- Card 3: Storage -->
        <rect x="300" y="0" width="136" height="72" rx="8" fill="#1E293B" stroke="rgba(255,255,255,0.04)" stroke-width="1"/>
        <text x="314" y="22" fill="#94A3B8" font-family="system-ui, -apple-system, sans-serif" font-size="10">Storage</text>
        <text x="314" y="54" fill="#F1F5F9" font-family="system-ui, -apple-system, sans-serif" font-size="26" font-weight="700">89 MB</text>
        <rect x="410" y="40" width="14" height="14" rx="3" fill="#0D9488" opacity="0.6"/>

        <!-- Card 4: Status -->
        <rect x="450" y="0" width="136" height="72" rx="8" fill="#1E293B" stroke="rgba(255,255,255,0.04)" stroke-width="1"/>
        <text x="464" y="22" fill="#94A3B8" font-family="system-ui, -apple-system, sans-serif" font-size="10">Status</text>
        <circle cx="480" cy="44" r="8" fill="#4AF626" opacity="0.2"/>
        <circle cx="480" cy="44" r="5" fill="#4AF626"/>
        <text x="496" y="48" fill="#4AF626" font-family="system-ui, -apple-system, sans-serif" font-size="12" font-weight="600">Online</text>
      </g>

      <!-- Collections Table Section -->
      <g transform="translate(0, 148)">
        <text x="0" y="0" fill="#F1F5F9" font-family="system-ui, -apple-system, sans-serif" font-size="14" font-weight="600">Collections</text>

        <g transform="translate(0, 18)">
          <!-- Table Header -->
          <rect x="0" y="0" width="590" height="30" rx="6" fill="#1E293B"/>
          <text x="18" y="20" fill="#94A3B8" font-family="system-ui, -apple-system, sans-serif" font-size="10" font-weight="600" letter-spacing="0.5">NAME</text>
          <text x="140" y="20" fill="#94A3B8" font-family="system-ui, -apple-system, sans-serif" font-size="10" font-weight="600" letter-spacing="0.5">VECTORS</text>
          <text x="260" y="20" fill="#94A3B8" font-family="system-ui, -apple-system, sans-serif" font-size="10" font-weight="600" letter-spacing="0.5">DIMENSIONS</text>
          <text x="380" y="20" fill="#94A3B8" font-family="system-ui, -apple-system, sans-serif" font-size="10" font-weight="600" letter-spacing="0.5">DISTANCE</text>
          <text x="500" y="20" fill="#94A3B8" font-family="system-ui, -apple-system, sans-serif" font-size="10" font-weight="600" letter-spacing="0.5">STATE</text>

          <!-- Row 1: documents -->
          <rect x="0" y="34" width="590" height="34" rx="6" fill="rgba(255,255,255,0.02)"/>
          <circle cx="20" cy="51" r="7" fill="#0D9488" opacity="0.3"/>
          <text x="18" y="55" fill="#E2E8F0" font-family="system-ui, -apple-system, sans-serif" font-size="11" font-weight="500">documents</text>
          <text x="140" y="55" fill="#CBD5E1" font-family="system-ui, -apple-system, sans-serif" font-size="11">8,256</text>
          <text x="260" y="55" fill="#CBD5E1" font-family="system-ui, -apple-system, sans-serif" font-size="11">768</text>
          <text x="380" y="55" fill="#CBD5E1" font-family="system-ui, -apple-system, sans-serif" font-size="11">Cosine</text>
          <circle cx="512" cy="51" r="4" fill="#4AF626"/>
          <text x="522" y="55" fill="#4AF626" font-family="system-ui, -apple-system, sans-serif" font-size="10">Ready</text>

          <!-- Row 2: embeddings -->
          <rect x="0" y="72" width="590" height="34" rx="6" fill="rgba(255,255,255,0.02)"/>
          <circle cx="20" cy="89" r="7" fill="#6366F1" opacity="0.3"/>
          <text x="18" y="93" fill="#E2E8F0" font-family="system-ui, -apple-system, sans-serif" font-size="11" font-weight="500">embeddings</text>
          <text x="140" y="93" fill="#CBD5E1" font-family="system-ui, -apple-system, sans-serif" font-size="11">3,512</text>
          <text x="260" y="93" fill="#CBD5E1" font-family="system-ui, -apple-system, sans-serif" font-size="11">1536</text>
          <text x="380" y="93" fill="#CBD5E1" font-family="system-ui, -apple-system, sans-serif" font-size="11">Dot</text>
          <circle cx="512" cy="89" r="4" fill="#4AF626"/>
          <text x="522" y="93" fill="#4AF626" font-family="system-ui, -apple-system, sans-serif" font-size="10">Ready</text>

          <!-- Row 3: images -->
          <rect x="0" y="110" width="590" height="34" rx="6" fill="rgba(255,255,255,0.02)"/>
          <circle cx="20" cy="127" r="7" fill="#F59E0B" opacity="0.3"/>
          <text x="18" y="131" fill="#E2E8F0" font-family="system-ui, -apple-system, sans-serif" font-size="11" font-weight="500">images</text>
          <text x="140" y="131" fill="#CBD5E1" font-family="system-ui, -apple-system, sans-serif" font-size="11">672</text>
          <text x="260" y="131" fill="#CBD5E1" font-family="system-ui, -apple-system, sans-serif" font-size="11">512</text>
          <text x="380" y="131" fill="#CBD5E1" font-family="system-ui, -apple-system, sans-serif" font-size="11">Euclid</text>
          <circle cx="512" cy="127" r="4" fill="#FBBF24"/>
          <text x="522" y="131" fill="#FBBF24" font-family="system-ui, -apple-system, sans-serif" font-size="10">Yellow</text>
        </g>
      </g>
    </g>

    <!-- Qdrant version badge -->
    <rect x="640" y="508" width="70" height="18" rx="4" fill="rgba(13,148,136,0.12)"/>
    <text x="675" y="521" fill="#0D9488" font-family="system-ui, -apple-system, sans-serif" font-size="8" text-anchor="middle" font-weight="500">Qdrant v1.13</text>
  </g>

  <!-- ===== TERMINAL WINDOW (top-most) ===== -->
  <g filter="url(#shadowDeep)" transform="translate(40, 42)">
    <!-- Window body -->
    <rect width="720" height="420" rx="8" fill="#1E1E1E"/>
    <rect width="720" height="34" rx="8" fill="url(#termTitle)"/>
    <rect x="0" y="34" width="720" height="1" fill="rgba(255,255,255,0.06)"/>
    <rect x="0" y="34" width="720" height="386" fill="#121212"/>

    <!-- Title bar dots -->
    <circle cx="16" cy="17" r="5" fill="#FF5F57"/>
    <circle cx="32" cy="17" r="5" fill="#FFBD2E"/>
    <circle cx="48" cy="17" r="5" fill="#28C840"/>

    <!-- Title -->
    <text x="360" y="22" fill="#AAA" font-family="system-ui, -apple-system, sans-serif" font-size="11" text-anchor="middle">aiuser@ash: ~</text>

    <!-- Terminal content -->
    <g transform="translate(14, 52)" font-family="'JetBrains Mono', 'Fira Code', 'SF Mono', monospace" font-size="12">
      <!-- Shell prompt -->
      <text x="0" y="0" fill="#0D9488">aiuser@ash</text>
      <text x="72" y="0" fill="#888">:</text>
      <text x="80" y="0" fill="#4AF626">~</text>
      <text x="96" y="0" fill="#888">$</text>
      <text x="108" y="0" fill="#CCC">ollama run llama3.1</text>

      <!-- Blue loading output -->
      <text x="0" y="22" fill="#569CD6">pulling manifest</text>

      <!-- Download progress line 1 -->
      <text x="0" y="42" fill="#569CD6">pulling 8a0d2f7c4c1b...  </text>
      <text x="196" y="42" fill="#569CD6">100%</text>
      <rect x="232" y="34" width="120" height="8" rx="4" fill="rgba(255,255,255,0.06)"/>
      <rect x="232" y="34" width="120" height="8" rx="4" fill="url(#termProgress)"/>
      <text x="360" y="42" fill="#AAA">4.0 GB/4.0 GB  52 MB/s</text>
      <text x="572" y="42" fill="#4AF626">✓</text>

      <!-- Download progress line 2 -->
      <text x="0" y="62" fill="#569CD6">pulling 6b4b1e4c8a2d...  </text>
      <text x="196" y="62" fill="#569CD6">100%</text>
      <rect x="232" y="54" width="120" height="8" rx="4" fill="rgba(255,255,255,0.06)"/>
      <rect x="232" y="54" width="120" height="8" rx="4" fill="url(#termProgress)"/>
      <text x="360" y="62" fill="#AAA">2.1 GB/2.1 GB  45 MB/s</text>
      <text x="572" y="62" fill="#4AF626">✓</text>

      <!-- Download progress line 3 -->
      <text x="0" y="82" fill="#569CD6">pulling a3b0c1d2e3f4...  </text>
      <text x="196" y="82" fill="#569CD6">100%</text>
      <rect x="232" y="74" width="120" height="8" rx="4" fill="rgba(255,255,255,0.06)"/>
      <rect x="232" y="74" width="120" height="8" rx="4" fill="url(#termProgress)"/>
      <text x="360" y="82" fill="#AAA">1.2 GB/1.2 GB  38 MB/s</text>
      <text x="572" y="82" fill="#4AF626">✓</text>

      <!-- Blue processing -->
      <text x="0" y="104" fill="#569CD6">verifying sha256 digest</text>
      <text x="0" y="124" fill="#569CD6">writing manifest</text>

      <!-- Green success -->
      <text x="0" y="146" fill="#4AF626">success</text>

      <!-- Separator / ollama ready message -->
      <text x="0" y="170" fill="#888">>>> Send a message (type /help for help)</text>

      <!-- User prompt (gray) -->
      <text x="0" y="194" fill="#888">>>> </text>
      <text x="32" y="194" fill="#CCC">Write a Python function to find similar vectors in Qdrant</text>

      <!-- Green code output (streaming tokens) -->
      <text x="0" y="218" fill="#4AF626">def find_similar(</text>
      <text x="4" y="238" fill="#4AF626">    client: QdrantClient,</text>
      <text x="4" y="258" fill="#4AF626">    collection: str,</text>
      <text x="4" y="278" fill="#4AF626">    vector: list[float],</text>
      <text x="4" y="298" fill="#4AF626">    limit: int = 10</text>
      <text x="0" y="318" fill="#4AF626">) -> list[ScoredPoint]:</text>
      <text x="4" y="338" fill="#4AF626">    return client.search(</text>
      <text x="8" y="358" fill="#4AF626">        collection_name=collection,</text>
      <text x="8" y="378" fill="#4AF626">        query_vector=vector,</text>
      <text x="8" y="398" fill="#4AF626">        limit=limit</text>
      <text x="4" y="418" fill="#4AF626">    )</text>
    </g>

    <!-- Terminal scrollbar -->
    <rect x="706" y="34" width="6" height="386" rx="3" fill="transparent"/>
    <rect x="706" y="34" width="6" height="40" rx="3" fill="rgba(255,255,255,0.08)"/>
  </g>
</svg>
