<svg xmlns="http://www.w3.org/2000/svg" viewBox="0 0 400 225" width="400" height="225">
  <rect width="400" height="225" fill="#0a0a0a"/>
  
  <!-- Top bar -->
  <rect x="0" y="0" width="400" height="24" fill="#1a1a2e"/>
  <text x="200" y="16" text-anchor="middle" font-family="monospace" font-size="11" fill="#888" font-weight="bold">GNU GRUB version 2.06</text>
  
  <!-- Menu items -->
  <rect x="30" y="35" width="340" height="5" rx="0" fill="#333"/>
  
  <!-- Selected entry -->
  <rect x="30" y="42" width="340" height="22" rx="3" fill="#0d7377"/>
  <text x="48" y="57" font-family="monospace" font-size="13" fill="#fff" font-weight="bold">› ash</text>
  <text x="260" y="57" font-family="monospace" font-size="10" fill="#a0e6e8">default</text>
  
  <rect x="30" y="67" width="340" height="20" rx="3" fill="transparent"/>
  <text x="48" y="81" font-family="monospace" font-size="13" fill="#bbb">  Arch Linux (linux-zen)</text>
  
  <rect x="30" y="90" width="340" height="20" rx="3" fill="transparent"/>
  <text x="48" y="104" font-family="monospace" font-size="13" fill="#bbb">  Arch Linux (linux-lts)</text>
  
  <rect x="30" y="113" width="340" height="20" rx="3" fill="transparent"/>
  <text x="48" y="127" font-family="monospace" font-size="13" fill="#bbb">  Arch Linux (fallback initramfs)</text>
  
  <rect x="30" y="136" width="340" height="20" rx="3" fill="transparent"/>
  <text x="48" y="150" font-family="monospace" font-size="13" fill="#666">  Advanced options for Arch Linux</text>
  
  <rect x="30" y="159" width="340" height="20" rx="3" fill="transparent"/>
  <text x="48" y="173" font-family="monospace" font-size="13" fill="#666">  Memory test (memtest86+)</text>
  
  <rect x="30" y="182" width="340" height="20" rx="3" fill="transparent"/>
  <text x="48" y="196" font-family="monospace" font-size="13" fill="#666">  Memory test (memtest86+, serial console)</text>
  
  <!-- Bottom bar -->
  <rect x="0" y="208" width="400" height="17" fill="#111"/>
  <text x="12" y="219" font-family="monospace" font-size="9" fill="#555">Use ↑↓ to highlight, Enter to boot, e to edit</text>
</svg>